<?xml version="1.0" encoding="UTF-8" standalone="no"?>
<!-- Created with Inkscape (http://www.inkscape.org/) -->

<svg
   width="1920"
   height="1080"
   viewBox="0 0 1920 1080"
   version="1.1"
   id="svg1"
   xml:space="preserve"
   inkscape:version="1.3.2 (091e20e, 2023-11-25)"
   sodipodi:docname="drawing.svg"
   xmlns:inkscape="http://www.inkscape.org/namespaces/inkscape"
   xmlns:sodipodi="http://sodipodi.sourceforge.net/DTD/sodipodi-0.dtd"
   xmlns="http://www.w3.org/2000/svg"
   xmlns:svg="http://www.w3.org/2000/svg"><sodipodi:namedview
     id="namedview1"
     pagecolor="#ffffff"
     bordercolor="#000000"
     borderopacity="0.25"
     inkscape:showpageshadow="2"
     inkscape:pageopacity="0.0"
     inkscape:pagecheckerboard="0"
     inkscape:deskcolor="#d1d1d1"
     inkscape:document-units="px"
     inkscape:zoom="0.40197127"
     inkscape:cx="709.00589"
     inkscape:cy="572.18019"
     inkscape:window-width="1440"
     inkscape:window-height="791"
     inkscape:window-x="0"
     inkscape:window-y="25"
     inkscape:window-maximized="1"
     inkscape:current-layer="layer1" /><defs
     id="defs1"><g
       id="g1" /><clipPath
       id="9c2ff145a3"><path
         d="M 81 305.605469 L 270.898438 305.605469 L 270.898438 344.167969 L 81 344.167969 Z M 81 305.605469 "
         clip-rule="nonzero"
         id="path1" /></clipPath><clipPath
       id="4b958a1fbc"><path
         d="M 232.339844 305.605469 L 270.898438 305.605469 L 270.898438 493 L 232.339844 493 Z M 232.339844 305.605469 "
         clip-rule="nonzero"
         id="path2" /></clipPath><clipPath
       id="28347f8680"><path
         d="M 131.632812 355.21875 L 170.191406 355.21875 L 170.191406 393.777344 L 131.632812 393.777344 Z M 131.632812 355.21875 "
         clip-rule="nonzero"
         id="path3" /></clipPath><clipPath
       id="3c8e444d27"><path
         d="M 182.710938 355.21875 L 221.269531 355.21875 L 221.269531 393.777344 L 182.710938 393.777344 Z M 182.710938 355.21875 "
         clip-rule="nonzero"
         id="path4" /></clipPath><clipPath
       id="d18fac6d16"><path
         d="M 131.632812 404.84375 L 170.191406 404.84375 L 170.191406 443.402344 L 131.632812 443.402344 Z M 131.632812 404.84375 "
         clip-rule="nonzero"
         id="path5" /></clipPath><clipPath
       id="68cdf5ad5b"><path
         d="M 182.710938 404.84375 L 221.269531 404.84375 L 221.269531 443.402344 L 182.710938 443.402344 Z M 182.710938 404.84375 "
         clip-rule="nonzero"
         id="path6" /></clipPath><clipPath
       id="29ecddf291"><path
         d="M 81 454.472656 L 270.898438 454.472656 L 270.898438 493.03125 L 81 493.03125 Z M 81 454.472656 "
         clip-rule="nonzero"
         id="path7" /></clipPath><clipPath
       id="312ad51e94"><path
         d="M 81 344.167969 L 119.558594 344.167969 L 119.558594 493 L 81 493 Z M 81 344.167969 "
         clip-rule="nonzero"
         id="path8" /></clipPath><filter
       id="mask-powermask-path-effect240_inverse"
       inkscape:label="filtermask-powermask-path-effect240"
       style="color-interpolation-filters:sRGB"
       height="100"
       width="100"
       x="-50"
       y="-50"><feColorMatrix
         id="mask-powermask-path-effect240_primitive1"
         values="1"
         type="saturate"
         result="fbSourceGraphic" /><feColorMatrix
         id="mask-powermask-path-effect240_primitive2"
         values="-1 0 0 0 1 0 -1 0 0 1 0 0 -1 0 1 0 0 0 1 0 "
         in="fbSourceGraphic" /></filter></defs><g
     inkscape:label="Layer 1"
     inkscape:groupmode="layer"
     id="layer1"><g
       id="g240"
       transform="matrix(1.3333333,0,0,1.3333333,119.39778,-20.580283)"><g
         fill="#000000"
         fill-opacity="1"
         id="g11"><g
           transform="translate(345.69356,492.14616)"
           id="g10"><g
             id="g9"><path
               d="M 123.01563,-38.765625 H 55.046875 L 42.125,0 H 0.90625 L 70.9375,-188.125 h 35.92188 L 177.28125,0 H 136.0625 Z M 65.515625,-70.15625 h 47.031255 l -23.656255,-70.42187 z m 0,0"
               id="path9" /></g></g></g><g
         fill="#000000"
         fill-opacity="1"
         id="g14"><g
           transform="translate(523.72453,492.14616)"
           id="g13"><g
             id="g12"><path
               id="path11"
               d="M 58.573428,-118.84292 131.01581,-1.4377135e-4 h 38.76563 V -188.12564 h -38.625 V -64.094384 L 58.573428,-183.18618 Z" /><path
               id="path255"
               d="M 46.573427,-132.68423 H 16.797548 V -1.4377135e-4 h 29.775879 z" /><path
               id="path256"
               d="m 16.797548,-188.12564 v 40.44141 h 29.775879 v -40.44141 z" /></g></g></g><g
         fill="#000000"
         fill-opacity="1"
         id="g17"><g
           transform="translate(710.54076,492.14616)"
           id="g16"><g
             id="g15"><path
               d="m 95.359375,0 c -1.71875,-3.363281 -2.96875,-7.539062 -3.75,-12.53125 C 82.566406,-2.457031 70.8125,2.578125 56.34375,2.578125 c -13.699219,0 -25.054688,-3.957031 -34.0625,-11.875 -9,-7.925781 -13.5,-17.921875 -13.5,-29.984375 0,-14.8125 5.488281,-26.179688 16.46875,-34.109375 10.988281,-7.925781 26.863281,-11.929687 47.625,-12.015625 h 17.1875 v -8.015625 c 0,-6.457031 -1.664062,-11.625005 -4.984375,-15.500005 -3.3125,-3.875 -8.542969,-5.8125 -15.6875,-5.8125 -6.292969,0 -11.226563,1.51172 -14.796875,4.53125 -3.574219,3.01172 -5.359375,7.14063 -5.359375,12.39063 h -37.34375 c 0,-8.09375 2.492187,-15.58203 7.484375,-22.46875 5,-6.89453 12.0625,-12.30078 21.1875,-16.21875 9.132812,-3.92578 19.390625,-5.89062 30.765625,-5.89062 17.226563,0 30.898435,4.32812 41.015625,12.98437 10.125,8.65625 15.1875,20.82422 15.1875,36.5 v 60.609375 c 0.082,13.261719 1.9375,23.292969 5.5625,30.09375 V 0 Z M 64.46875,-25.96875 c 5.519531,0 10.601562,-1.226562 15.25,-3.6875 4.65625,-2.457031 8.101562,-5.75 10.34375,-9.875 V -63.578125 H 76.109375 c -18.699219,0 -28.652344,6.464844 -29.859375,19.390625 L 46.125,-42 c 0,4.65625 1.632812,8.496094 4.90625,11.515625 3.28125,3.011719 7.757812,4.515625 13.4375,4.515625 z m 0,0"
               id="path14" /></g></g></g><g
         fill="#000000"
         fill-opacity="1"
         id="g20"><g
           transform="translate(852.39707,492.14616)"
           id="g19"><g
             id="g18"><path
               d="M 53.75,0 H 16.28125 V -198.46875 H 53.75 Z m 0,0"
               id="path17" /></g></g></g><g
         fill="#000000"
         fill-opacity="1"
         id="g23"><g
           transform="translate(922.55006,492.14616)"
           id="g22"><g
             id="g21"><path
               d="m 8.53125,-71.203125 c 0,-13.863281 2.664062,-26.222656 8,-37.078125 5.34375,-10.85156 13.03125,-19.25 23.0625,-25.1875 10.039062,-5.94531 21.695312,-8.92187 34.96875,-8.92187 18.863281,0 34.25781,5.77343 46.1875,17.31249 11.92578,11.54297 18.58203,27.218755 19.96875,47.031255 l 0.25,9.5625 c 0,21.449219 -5.99219,38.65625 -17.96875,51.625 -11.96875,12.960937 -28.03125,19.4375 -48.1875,19.4375 -20.15625,0 -36.246094,-6.457031 -48.265625,-19.375 C 14.535156,-29.710938 8.53125,-47.285156 8.53125,-69.515625 Z m 37.34375,2.71875 c 0,13.273437 2.492188,23.417969 7.484375,30.4375 5,7.023437 12.148437,10.53125 21.453125,10.53125 9.039062,0 16.101562,-3.46875 21.1875,-10.40625 5.08203,-6.9375 7.625,-18.03125 7.625,-33.28125 0,-13 -2.54297,-23.070313 -7.625,-30.218755 -5.085938,-7.15625 -12.230469,-10.73437 -21.4375,-10.73437 -9.136719,0 -16.203125,3.55859 -21.203125,10.67187 -4.992187,7.105474 -7.484375,18.105474 -7.484375,33.000005 z m 0,0"
               id="path20" /></g></g></g><g
         fill="#000000"
         fill-opacity="1"
         id="g26"><g
           transform="translate(1072.1581,492.14616)"
           id="g25"><g
             id="g24"><path
               d="m 8.921875,-70.9375 c 0,-21.445312 5.097656,-38.71875 15.296875,-51.8125 10.207031,-13.09375 23.972656,-19.64062 41.296875,-19.64062 15.332031,0 27.257813,5.25781 35.781255,15.76562 l 1.5625,-13.1875 h 33.84374 V -4.65625 c 0,12.238281 -2.78125,22.878906 -8.34375,31.921875 C 122.80469,36.304688 114.98828,43.195312 104.90625,47.9375 94.832031,52.675781 83.035156,55.046875 69.515625,55.046875 59.265625,55.046875 49.269531,53 39.53125,48.90625 29.800781,44.8125 22.4375,39.535156 17.4375,33.078125 L 33.984375,10.34375 c 9.300781,10.414062 20.585937,15.625 33.859375,15.625 9.90625,0 17.613281,-2.652344 23.125,-7.953125 5.507812,-5.292969 8.265625,-12.804687 8.265625,-22.53125 v -7.5 C 90.617188,-2.285156 79.289062,2.578125 65.25,2.578125 c -16.792969,0 -30.382812,-6.566406 -40.765625,-19.703125 -10.375,-13.132812 -15.5625,-30.554688 -15.5625,-52.265625 z M 46.25,-68.21875 c 0,12.65625 2.539062,22.585938 7.625,29.78125 5.082031,7.1875 12.0625,10.78125 20.9375,10.78125 11.375,0 19.515625,-4.257812 24.421875,-12.78125 v -58.796875 c -5,-8.531255 -13.054687,-12.796875 -24.15625,-12.796875 -8.960937,0 -16.007813,3.66406 -21.140625,10.98437 -5.125,7.324224 -7.6875,18.26563 -7.6875,32.82813 z m 0,0"
               id="path23" /></g></g></g><path
         stroke-linecap="butt"
         fill="none"
         stroke-linejoin="miter"
         d="M 0.62997333,10.00212 H 300.52582"
         stroke="#38b6ff"
         stroke-width="20"
         stroke-opacity="1"
         stroke-miterlimit="4"
         id="path26"
         transform="matrix(0.75,0,0,0.75,346.12733,510.74841)"
         sodipodi:nodetypes="cc" /><g
         clip-path="url(#9c2ff145a3)"
         id="g29"><path
           fill="#38b6ff"
           d="m 81,305.60547 h 189.9375 v 38.5625 H 81 Z m 0,0"
           fill-opacity="1"
           fill-rule="nonzero"
           id="path29" /></g><g
         clip-path="url(#4b958a1fbc)"
         id="g30"><path
           fill="#33a3e4"
           d="m 232.33984,305.60547 h 38.5586 v 187.375 h -38.5586 z m 0,0"
           fill-opacity="1"
           fill-rule="nonzero"
           id="path30" /></g><g
         clip-path="url(#28347f8680)"
         id="g31"><path
           fill="#38b6ff"
           d="m 131.63281,355.21875 h 38.5586 v 38.55859 h -38.5586 z m 0,0"
           fill-opacity="1"
           fill-rule="nonzero"
           id="path31" /></g><g
         clip-path="url(#3c8e444d27)"
         id="g32"><path
           fill="#38b6ff"
           d="m 182.71094,355.21875 h 38.55859 v 38.55859 h -38.55859 z m 0,0"
           fill-opacity="1"
           fill-rule="nonzero"
           id="path32" /></g><g
         clip-path="url(#d18fac6d16)"
         id="g33"><path
           fill="#38b6ff"
           d="m 131.63281,404.84375 h 38.5586 v 38.55859 h -38.5586 z m 0,0"
           fill-opacity="1"
           fill-rule="nonzero"
           id="path33" /></g><g
         clip-path="url(#68cdf5ad5b)"
         id="g34"><path
           fill="#38b6ff"
           d="m 182.71094,404.84375 h 38.55859 v 38.55859 h -38.55859 z m 0,0"
           fill-opacity="1"
           fill-rule="nonzero"
           id="path34" /></g><g
         clip-path="url(#29ecddf291)"
         id="g35"><path
           fill="#228dcd"
           d="m 81,454.47266 h 189.9375 v 38.55859 H 81 Z m 0,0"
           fill-opacity="1"
           fill-rule="nonzero"
           id="path35" /></g><g
         clip-path="url(#312ad51e94)"
         id="g36"><path
           fill="#1074af"
           d="m 81,344.16797 h 38.55859 v 148.8125 H 81 Z m 0,0"
           fill-opacity="1"
           fill-rule="nonzero"
           id="path36" /></g></g></g></svg>
